<?xml version="1.0" encoding="UTF-8" standalone="no"?>
<!DOCTYPE svg PUBLIC "-//W3C//DTD SVG 1.1//EN" "http://www.w3.org/Graphics/SVG/1.1/DTD/svg11.dtd">
<svg version="1.1" xmlns="http://www.w3.org/2000/svg" xmlns:xlink="http://www.w3.org/1999/xlink" preserveAspectRatio="xMidYMid meet" viewBox="0 0 640 640" width="640" height="640"><defs><path d="M225.2 201.58C212.79 201.58 205.9 201.58 204.52 201.58C78.38 201.58 -22.95 314.6 -22.95 455.3C-22.95 466.07 -22.95 519.89 -22.95 616.76L225.2 616.76L225.2 201.58Z" id="c1kpgMZ41V"></path><path d="M445.44 291.19C445.44 259.52 414.42 200.7 362.72 200.7C362.72 196.18 362.72 159.98 362.72 155.46C439.23 155.46 486.8 236.9 486.8 291.19C478.52 291.19 449.57 291.19 445.44 291.19Z" id="auCqorsth"></path><path d="M473.34 455.3C473.34 314.6 372.02 201.58 245.88 201.58C244.5 201.58 237.6 201.58 225.2 201.58L225.2 616.76L473.34 616.76C473.34 519.89 473.34 466.07 473.34 455.3Z" id="dZT1eRTFL"></path><path d="M225.2 518.28C247.94 518.28 266.56 497.92 266.56 473.03C266.56 461.72 266.56 371.24 266.56 359.93C266.56 335.04 247.94 314.69 225.2 314.69C202.45 314.69 183.84 335.04 183.84 359.93C183.84 367.47 183.84 405.17 183.84 473.03C196.25 503.2 210.03 518.28 225.2 518.28Z" id="a2gY3OA75u"></path><path d="M528.15 291.19C528.15 191.65 453.71 110.22 362.72 110.22C362.72 105.69 362.72 69.5 362.72 64.97C476.46 64.97 569.51 166.77 569.51 291.19C561.24 291.19 532.29 291.19 528.15 291.19Z" id="ckUIOawH6"></path><path d="M225.2 517.95C202.45 517.95 183.84 499.69 183.84 477.38C183.84 467.23 183.84 386.08 183.84 375.94C183.84 353.62 202.45 335.36 225.2 335.36C247.94 335.36 266.56 353.62 266.56 375.94C266.56 382.7 266.56 416.52 266.56 477.38C254.15 504.43 240.36 517.95 225.2 517.95Z" id="b1ss67AxM6"></path><path d="M640 320C640 496.61 496.61 640 320 640C143.39 640 0 496.61 0 320C0 143.39 143.39 0 320 0C496.61 0 640 143.39 640 320Z" id="agjH6mgog"></path><clipPath id="clipbgR1LZCqV"><use xlink:href="#agjH6mgog" opacity="1"></use></clipPath></defs><g><g><g><use xlink:href="#c1kpgMZ41V" opacity="1" fill="#cfd8dc" fill-opacity="1"></use><g><use xlink:href="#c1kpgMZ41V" opacity="1" fill-opacity="0" stroke="#000000" stroke-width="1" stroke-opacity="0"></use></g></g><g><use xlink:href="#auCqorsth" opacity="1" fill="#b2ebf2" fill-opacity="1"></use><g><use xlink:href="#auCqorsth" opacity="1" fill-opacity="0" stroke="#000000" stroke-width="1" stroke-opacity="0"></use></g></g><g><use xlink:href="#dZT1eRTFL" opacity="1" fill="#00bcd4" fill-opacity="1"></use><g><use xlink:href="#dZT1eRTFL" opacity="1" fill-opacity="0" stroke="#000000" stroke-width="1" stroke-opacity="0"></use></g></g><g><use xlink:href="#a2gY3OA75u" opacity="1" fill="#37474f" fill-opacity="1"></use><g><use xlink:href="#a2gY3OA75u" opacity="1" fill-opacity="0" stroke="#000000" stroke-width="1" stroke-opacity="0"></use></g></g><g><use xlink:href="#ckUIOawH6" opacity="1" fill="#b2ebf2" fill-opacity="1"></use><g><use xlink:href="#ckUIOawH6" opacity="1" fill-opacity="0" stroke="#000000" stroke-width="1" stroke-opacity="0"></use></g></g><g><use xlink:href="#b1ss67AxM6" opacity="1" fill="#37474f" fill-opacity="1"></use><g><use xlink:href="#b1ss67AxM6" opacity="1" fill-opacity="0" stroke="#000000" stroke-width="1" stroke-opacity="0"></use></g></g><g><g><filter id="shadow8123775" x="-127" y="-127" width="966" height="894" filterUnits="userSpaceOnUse" primitiveUnits="userSpaceOnUse"><feFlood></feFlood><feComposite in2="SourceAlpha" operator="in"></feComposite><feGaussianBlur stdDeviation="0"></feGaussianBlur><feOffset dx="-72" dy="0" result="afterOffset"></feOffset><feFlood flood-color="#ffffff" flood-opacity="1"></feFlood><feComposite in2="afterOffset" operator="in"></feComposite><feMorphology operator="dilate" radius="50"></feMorphology><feComposite in2="SourceAlpha" operator="out"></feComposite></filter><path d="M640 320C640 496.61 496.61 640 320 640C143.39 640 0 496.61 0 320C0 143.39 143.39 0 320 0C496.61 0 640 143.39 640 320Z" id="d2s2LwNQga" fill="white" fill-opacity="1" filter="url(#shadow8123775)"></path></g><g clip-path="url(#clipbgR1LZCqV)"><use xlink:href="#agjH6mgog" opacity="1" fill-opacity="0" stroke="#686868" stroke-width="50" stroke-opacity="1"></use></g></g></g></g></svg>